<svg aria-hidden="true" style="position:absolute;width:0;height:0;overflow:hidden" xmlns="http://www.w3.org/2000/svg"><defs><symbol id="icon-antenna" viewBox="0 0 32 32"><path fill="#212121" style="fill:var(--color1, #212121)" d="m30.773 22.098-8.443-8.505.937-4.615c.242.094.499.144.758.146h.006a2.159 2.159 0 1 0-2.008-1.435l-4.96.605L8.972.161a.534.534 0 0 0-.377-.16.532.532 0 0 0-.373.155L6.709 1.66a.534.534 0 0 0 0 .754l.814.826a14.943 14.943 0 0 0 2.519 17.663.513.513 0 0 0 .146.098c-.034.18-.051.364-.052.547v6.187h-6.4a2.67 2.67 0 0 0-2.667 2.667v1.067c0 .295.239.533.533.533h24.533a.533.533 0 0 0 .533-.533v-1.067a2.67 2.67 0 0 0-2.667-2.667h-6.4v-2.742a15.09 15.09 0 0 0 3.049.32 14.854 14.854 0 0 0 7.04-1.783l.818.823a.534.534 0 0 0 .377.16.532.532 0 0 0 .373-.155l1.513-1.504a.534.534 0 0 0 0-.754zM23.28 6.233a1.066 1.066 0 1 1 .752 1.822h-.003a1.067 1.067 0 0 1-.747-1.823h-.002zm-1.256 3.505-.598 2.946-1.175-1.182 1.774-1.763zm-.605-.902-1.92 1.909-1.485-1.493 3.405-.415zM24.004 28.8a1.6 1.6 0 0 1 1.6 1.6v.533H2.137V30.4a1.6 1.6 0 0 1 1.6-1.6h20.267zm-7.467-2.133v1.067h-5.333v-1.067h5.333zM11.204 25.6v-4.053c0-1.294 1.196-2.347 2.667-2.347s2.667 1.053 2.667 2.347V25.6h-5.333zm6.4-1.696v-2.357c0-1.882-1.675-3.413-3.733-3.413a3.8 3.8 0 0 0-3.281 1.786A13.87 13.87 0 0 1 8.311 4.033l18.602 18.708a13.818 13.818 0 0 1-9.309 1.163zm11.289-.684L7.836 2.039l.755-.752 7.935 7.98c.004 0 .006.007.01.01l13.115 13.191-.757.752z"/><path fill="#2196f3" style="fill:var(--color2, #2196f3)" d="M13.876 20.267h-.005a1.6 1.6 0 1 0-.004 3.2h.005a1.6 1.6 0 1 0 .004-3.2zm.373 1.978a.534.534 0 0 1-.752-.756.534.534 0 0 1 .373-.155.532.532 0 0 1 .373.911h.005z"/></symbol><symbol id="icon-astronaut" viewBox="0 0 32 32"><path fill="#2196f3" style="fill:var(--color2, #2196f3)" d="M31.974 4.524a.535.535 0 0 0-.427-.362h-.003l-1.911-.278-.855-1.731c-.179-.365-.777-.365-.956 0l-.855 1.731-1.911.278a.534.534 0 0 0-.296.91l1.383 1.348-.326 1.903a.532.532 0 0 0 .774.562l1.709-.899 1.709.899a.534.534 0 0 0 .773-.565v.003l-.326-1.903 1.383-1.348a.535.535 0 0 0 .134-.55l.001.004zm-2.463 1.327a.53.53 0 0 0-.153.472l.191 1.114-1-.526a.525.525 0 0 0-.501.001l.003-.001-1 .526.191-1.114a.53.53 0 0 0-.152-.472l-.811-.79 1.119-.162a.532.532 0 0 0 .402-.292l.5-1.013.5 1.013a.532.532 0 0 0 .402.292l1.119.162-.809.79zm-3.377 14.671h-1.067v1.067h1.067v-1.067zm0 2.134h-1.067v1.066h1.067v-1.066zm1.066-1.067h-1.067v1.067H27.2v-1.067zm-2.133 0H24v1.067h1.067v-1.067zm-2.667 4.8h-1.067v1.067H22.4v-1.067zm0 2.134h-1.067v1.067H22.4v-1.067zm1.067-1.067H22.4v1.067h1.067v-1.067zm-2.133 0h-1.067v1.067h1.067v-1.067zM16 24.256h-1.066v1.067H16v-1.067zm0 2.133h-1.066v1.067H16v-1.067zm1.067-1.067H16v1.067h1.067v-1.067zm-2.133 0h-1.067v1.067h1.067v-1.067zm-9.067-19.2H4.801v1.066h1.066V6.122zm0 2.134H4.801v1.066h1.066V8.256zm1.066-1.067H5.866v1.067h1.066V7.189zm-2.133 0H3.733v1.067H4.8V7.189z"/><path fill="#212121" style="fill:var(--color1, #212121)" d="M24.715 14.16a1.774 1.774 0 0 0-1.179-.703l-.009-.001a1.769 1.769 0 0 0-1.344.355l.004-.003-1.253.96-1.898 1.417-1.358-.541c2.421-1.086 4.113-3.508 4.113-6.32 0-3.823-3.122-6.934-6.961-6.934S7.869 5.5 7.869 9.324c0 1.386.415 2.674 1.12 3.759l-2.768-.024c-.009 0-.016.005-.023.005a.511.511 0 0 0-.159.033l.004-.001c-.013.005-.026.007-.038.013-.006.003-.013.003-.019.006l-3.233 1.596-.001.001-1.893.91a.5.5 0 0 0-.065.036l.001-.001a1.782 1.782 0 0 0-.594 2.306l-.005-.01c.22.424.592.742 1.043.885l.013.003a1.772 1.772 0 0 0 1.388-.133l-.009.005 1.388-.738 2.264-1.169 1.357-.008-5.442 5.415-.001.001-1.339 1.333a1.643 1.643 0 0 0-.491 1.173v.005a1.668 1.668 0 0 0 1.667 1.664h.002a1.67 1.67 0 0 0 1.18-.485l1.314-1.309 1.741-1.3.901.897L4.07 27.28a1.643 1.643 0 0 0-.491 1.173v.004a1.662 1.662 0 0 0 1.666 1.664h.003a1.67 1.67 0 0 0 1.18-.485l4.488-4.472c.007-.006.016-.009.022-.016l5.166-5.658 3.471.494a.474.474 0 0 0 .262-.032c.017-.006.032-.015.049-.023.019-.01.039-.015.058-.027l3.213-2.133c.012-.008.018-.021.029-.03.013-.01.029-.014.041-.026l1.271-1.191c.348-.326.564-.787.564-1.3 0-.4-.132-.769-.355-1.066l.003.005zM2.13 17.77a.706.706 0 0 1-.564.05l.005.001a.717.717 0 0 1-.215-1.258l.002-.001 1.314-.632.316.924.133.389-.992.527zm3.497-1.828-1.548.8-.255-.746-.184-.537 2.027-1.001-.04 1.484zm15.1-6.62c0 .918-.219 1.785-.599 2.56l-4.181-1.899a1.865 1.865 0 0 0-.782-1.384l-.006-.004 1.464-4.861c2.377.757 4.104 2.975 4.104 5.588zm-11.789 0c0-3.235 2.644-5.867 5.894-5.867.253 0 .5.022.745.053l-1.432 4.753c-.019 0-.037-.006-.057-.006h-.001a1.872 1.872 0 0 0-1.872 1.867 1.873 1.873 0 0 0 1.872 1.867h.001c.695 0 1.295-.383 1.618-.944l3.863 1.755a5.891 5.891 0 0 1-4.737 2.39c-3.25 0-5.894-2.632-5.894-5.867zm5.957.8c0 .441-.362.8-.806.8h-.001a.804.804 0 0 1-.804-.8c0-.441.361-.8.806-.8s.806.359.806.8zM2.464 25.146a.606.606 0 0 1-.855.001.591.591 0 0 1 0-.844l.962-.959.852.848-.959.954zm3.214 3.734a.606.606 0 0 1-.855.001.591.591 0 0 1 0-.844l.963-.959.852.848-.96.955zm3.482-3.469-.001.001-1.765 1.76-.852-.848 1.765-1.757a.527.527 0 0 0 .09-.136c.007-.014.02-.026.026-.04.016-.041.019-.085.026-.128.003-.025.014-.048.014-.073 0-.035-.013-.07-.02-.105-.006-.032-.006-.064-.019-.096a.536.536 0 0 0-.092-.138c-.01-.012-.014-.026-.025-.038h-.001l-.001-.002-1.607-1.6c-.017-.017-.039-.024-.058-.038a.491.491 0 0 0-.084-.056l-.003-.001a.527.527 0 0 0-.09-.031l-.003-.001a.502.502 0 0 0-.101-.02h-.025a.603.603 0 0 0-.075.005h.003c-.036.005-.069.009-.104.021s-.064.027-.094.045c-.02.011-.043.015-.061.029l-1.774 1.324-.901-.897 2.399-2.386 4.36 4.289-.928.919zm6.819-7.017c-.016-.002-.03.004-.046.003l-.027-.001a.562.562 0 0 0-.092.008h.003a.484.484 0 0 0-.187.07l.002-.001a.492.492 0 0 0-.083.061c-.013.011-.028.016-.04.029l-4.698 5.146-4.328-4.256 2.833-2.818a.535.535 0 0 0-.378-.911h-.002l-2.219.013.028-1.607 3.104.027a6.928 6.928 0 0 0 4.978 2.101h.003c.438 0 .864-.046 1.28-.122.04.032.08.064.129.085l2.41.96.152.758.178.886-3.003-.427zm4.041.178-.313-1.558 1.446-1.08.946 1.257-2.08 1.381zm3.753-2.831-.837.785-.931-1.236.831-.637a.735.735 0 0 1 .543-.143.718.718 0 0 1 .621.71.71.71 0 0 1-.226.521z"/><path fill="#212121" style="fill:var(--color1, #212121)" d="m13.602 18.544-2.143-2.134a.53.53 0 0 0-.752 0l-2.143 2.133a.535.535 0 0 0 0 .756l2.142 2.134a.53.53 0 0 0 .752 0l2.143-2.134a.532.532 0 0 0 0-.756zm-2.519 1.759-1.387-1.381 1.386-1.381 1.387 1.381-1.387 1.381zm6.081-15.232-.258 1.036c.071.018 1.738.452 1.738 2.149h1.067c0-2.017-1.666-2.965-2.547-3.184zm2.547 4.251h-1.067v1.066h1.067V9.322z"/></symbol><symbol id="icon-client1" viewBox="0 0 32 32"><path  d="m6.128 0 4.771 4.517-8.856-.005v21.915h23.149v-8.379l4.766 4.512V.001H6.128zm18.854 17.517L11.454 4.71h13.528v12.807zm-4.2 5.704H5.706V8.482h1.066v13.741h14.01v.998zM9.266 29.344l-.557 1.147-.557-1.147h-.467l.813 1.529v.891h.422v-.891l.811-1.529h-.465zm.699 2.42.196-.563h.938l.198.563h.439l-.916-2.42h-.377l-.914 2.42h.437zm.665-1.906.351 1.004h-.701l.351-1.004zm2.218.946a.55.55 0 0 0-.091.307c0 .204.072.37.214.497.144.126.336.189.575.189s.445-.065.618-.194l.136.161h.469l-.356-.421c.14-.191.209-.435.209-.733h-.351a.973.973 0 0 1-.101.444l-.467-.552.165-.12a.905.905 0 0 0 .251-.253.532.532 0 0 0 .076-.279.496.496 0 0 0-.17-.384.61.61 0 0 0-.432-.156.641.641 0 0 0-.465.166.591.591 0 0 0-.173.449c0 .078.018.158.055.241.038.083.104.184.198.303-.18.129-.3.24-.361.334zm1.092.535a.616.616 0 0 1-.382.136c-.121 0-.217-.035-.289-.105s-.108-.161-.108-.273c0-.13.067-.245.2-.346l.052-.037.529.623zm-.434-1.072c-.114-.141-.171-.258-.171-.351 0-.081.023-.148.07-.201s.109-.08.188-.08c.073 0 .133.023.181.068a.21.21 0 0 1 .072.161.298.298 0 0 1-.103.234l-.052.042-.184.126zm3.939 1.314c.166-.145.262-.347.286-.605h-.419c-.022.173-.075.296-.158.371s-.207.111-.372.111a.468.468 0 0 1-.412-.206c-.093-.137-.14-.337-.14-.598v-.214c.002-.258.052-.454.15-.587a.493.493 0 0 1 .422-.201c.157 0 .276.039.357.116.082.076.133.202.153.376h.419c-.027-.265-.121-.47-.284-.615s-.378-.218-.645-.218a.978.978 0 0 0-.525.141c-.151.094-.267.228-.347.402s-.121.375-.121.603v.226c.003.223.045.418.125.587s.193.299.339.391a.949.949 0 0 0 .51.136c.276 0 .497-.072.663-.216zm2.472-.339c.082-.18.123-.388.123-.625v-.135a1.462 1.462 0 0 0-.126-.62.924.924 0 0 0-.878-.552.957.957 0 0 0-.525.145.939.939 0 0 0-.354.414 1.484 1.484 0 0 0-.125.625v.136c.001.232.043.436.126.613a.962.962 0 0 0 .356.411.98.98 0 0 0 .525.143.97.97 0 0 0 .525-.143.932.932 0 0 0 .352-.412zm-.45-1.368c.102.143.153.349.153.617v.126c0 .273-.05.48-.151.622a.493.493 0 0 1-.429.213.503.503 0 0 1-.432-.218c-.103-.145-.155-.351-.155-.617v-.14c.002-.26.054-.462.156-.603a.496.496 0 0 1 .427-.214c.186 0 .33.072.43.214z"/></symbol><symbol id="icon-client2" viewBox="0 0 32 32"><path  d="M14.224 1.806h-.084a9.985 9.985 0 0 0-.388-.014h-.28c-.244 0-.494.006-.741.019a.523.523 0 0 0-.056 0 17.4 17.4 0 0 0-6.471 1.651l-.266.128v13.625l.623-.211a23.32 23.32 0 0 1 1.731-.513 21.155 21.155 0 0 1 4.982-.662v1.79a15.56 15.56 0 0 0-.655.019h-.051a19.948 19.948 0 0 0-3.833.588c-1.59.398-3.124.996-4.566 1.779V2.53A18.3 18.3 0 0 1 8.959.582 18.343 18.343 0 0 1 13.474 0h.263c.314.008.621.022.909.044.759.053 1.511.173 2.249.358v1.762a13.947 13.947 0 0 0-2.179-.329l-.045-.004c-.152-.013-.304-.026-.446-.026zm3.101 1.801c.391.03.796.044 1.205.044a19.352 19.352 0 0 0 4.747-.609c1.589-.4 3.123-.998 4.564-1.781v17.163a18.313 18.313 0 0 1-4.792 1.948 18.486 18.486 0 0 1-4.515.581 13.778 13.778 0 0 1-3.425-.404V3.274c.265.061.537.117.814.164.455.077.934.133 1.401.167zm8.735.133-.623.21c-.573.192-1.15.365-1.731.518a21.098 21.098 0 0 1-5.173.663c-.406 0-.78-.011-1.141-.034l-.497-.033v14.017l.427.038c.395.034.803.052 1.214.052a16.573 16.573 0 0 0 4.074-.527 17.107 17.107 0 0 0 3.184-1.144l.266-.128V3.742zM5.377 25.977a.912.912 0 0 0-.693-.28 1.034 1.034 0 0 0-.4.075.91.91 0 0 0-.512.518 1.023 1.023 0 0 0-.072.387v2.335c-.006.165.026.328.092.479.055.12.135.226.234.313a.815.815 0 0 0 .321.166c.114.032.231.048.349.049a.972.972 0 0 0 .892-.61.951.951 0 0 0 .075-.372v-.261h-.61v.208a.528.528 0 0 1-.036.208.359.359 0 0 1-.089.131.365.365 0 0 1-.128.067.425.425 0 0 1-.128.022.314.314 0 0 1-.286-.125.548.548 0 0 1-.081-.313v-2.177a.738.738 0 0 1 .075-.349.31.31 0 0 1 .299-.141.33.33 0 0 1 .272.131c.068.09.104.2.101.313v.202h.604v-.238a1.093 1.093 0 0 0-.279-.737zM9.002 25.95a1.051 1.051 0 0 0-1.38 0 .961.961 0 0 0-.237.327 1.099 1.099 0 0 0-.089.452v2.239a1.08 1.08 0 0 0 .089.459c.055.12.136.227.237.313a.94.94 0 0 0 .322.197 1.028 1.028 0 0 0 .728 0c.121-.044.233-.111.33-.197a.948.948 0 0 0 .23-.313 1.08 1.08 0 0 0 .089-.459v-2.239a1.08 1.08 0 0 0-.089-.452 1.015 1.015 0 0 0-.23-.327zm-.284 3.019a.405.405 0 0 1-.121.324.445.445 0 0 1-.574 0 .397.397 0 0 1-.121-.324V26.73a.405.405 0 0 1 .121-.324.445.445 0 0 1 .574 0 .397.397 0 0 1 .121.324v2.239zM13.764 29.969V25.73h-.587l-.771 2.244h-.011l-.777-2.244h-.581v4.239h.606V27.39h.011l.593 1.823h.302l.598-1.823h.011v2.579h.606zM17.205 26.027a.84.84 0 0 0-.343-.232 1.363 1.363 0 0 0-.439-.066h-.9v4.239h.604v-1.656h.311c.189.009.376-.031.545-.116a.882.882 0 0 0 .332-.324 1.02 1.02 0 0 0 .139-.369c.024-.16.035-.321.033-.482a2.421 2.421 0 0 0-.059-.606.898.898 0 0 0-.223-.39zm-.311 1.292a.547.547 0 0 1-.056.221.346.346 0 0 1-.156.149.619.619 0 0 1-.285.053h-.276v-1.441h.311a.578.578 0 0 1 .272.053.349.349 0 0 1 .142.157.62.62 0 0 1 .053.236v.282c0 .099.006.2 0 .291h-.006zM20.066 25.73h-.495l-.934 4.239h.604l.177-.911h.823l.177.911h.604l-.957-4.239zm-.557 2.751.297-1.537h.011l.296 1.537h-.604zM23.969 28.284h-.011l-.912-2.554h-.581v4.239h.604V27.42h.012l.923 2.549h.568V25.73h-.604v2.554zM27.66 25.73l-.486 1.685h-.012l-.486-1.685h-.64l.83 2.447v1.792h.604v-1.792l.83-2.447h-.64zM3.692 31.166h.291v.817h.198v-.817h.29v-.167h-.778v.167zM6.14 30.998l-.381.984h.21l.081-.224h.392l.084.224h.215l-.391-.984h-.21zm-.032.595.134-.365.134.365h-.268zM8.559 31.62h.227v.127a.38.38 0 0 1-.233.083.244.244 0 0 1-.209-.093.411.411 0 0 1-.073-.257c0-.219.095-.329.283-.329a.206.206 0 0 1 .222.157l.195-.038c-.042-.192-.181-.289-.417-.289a.495.495 0 0 0-.344.127.494.494 0 0 0-.141.379.532.532 0 0 0 .126.369.477.477 0 0 0 .374.144.59.59 0 0 0 .417-.157v-.388h-.427v.166zM11.029 30.998h-.199v.984h.69v-.167h-.49v-.817zM13.118 30.998h-.199v.984h.199v-.984zM15.161 31.656l-.403-.657h-.193v.984h.185v-.643l.395.643h.198v-.984h-.182v.657zM17.007 31.549h.49v-.167h-.49v-.216h.528v-.167h-.727v.984h.747v-.167h-.548v-.266zM21.484 31.387h-.388v-.388h-.198v.984h.198v-.43h.388v.43h.198v-.984h-.198v.388zM23.342 31.549h.492v-.167h-.492v-.216h.529v-.167h-.727v.984h.746v-.167h-.548v-.266zM25.86 31.549c.171-.027.258-.117.258-.274a.236.236 0 0 0-.096-.219.553.553 0 0 0-.288-.058h-.417v.984h.198v-.412h.039a.261.261 0 0 1 .123.022.21.21 0 0 1 .07.072l.215.313h.237l-.12-.192a.685.685 0 0 0-.218-.236zm-.199-.136h-.146v-.247h.156a.526.526 0 0 1 .201.023c.014.013.026.029.033.046a.133.133 0 0 1-.005.111.128.128 0 0 1-.037.043.547.547 0 0 1-.201.023zM27.76 31.549h.49v-.167h-.49v-.216h.529v-.167h-.729v.984h.747v-.167h-.548v-.266z"/></symbol><symbol id="icon-client3" viewBox="0 0 32 32"><path  d="M5.267 30.294a.098.098 0 0 1 .06.024l.155.148c-.12.12-.269.216-.436.281a1.701 1.701 0 0 1-.619.101 1.66 1.66 0 0 1-.582-.094 1.266 1.266 0 0 1-.438-.266 1.189 1.189 0 0 1-.283-.411 1.373 1.373 0 0 1-.099-.527 1.223 1.223 0 0 1 .408-.94c.132-.116.291-.207.465-.268.191-.064.394-.096.599-.094.19-.004.379.025.556.086.154.058.295.138.417.238l-.13.158a.132.132 0 0 1-.033.029.093.093 0 0 1-.052.012.119.119 0 0 1-.056-.017l-.07-.042-.097-.054a1.136 1.136 0 0 0-.306-.094 1.366 1.366 0 0 0-.231-.017 1.225 1.225 0 0 0-.43.071 1 1 0 0 0-.337.199.918.918 0 0 0-.219.317 1.042 1.042 0 0 0-.079.418c-.002.145.025.288.079.425.047.116.12.223.215.315a.878.878 0 0 0 .322.195c.127.046.262.068.399.067.079.001.158-.003.237-.013a.944.944 0 0 0 .512-.217.12.12 0 0 1 .074-.027zM9.745 29.549c.002.179-.033.356-.105.524-.063.152-.163.291-.292.407s-.286.207-.458.267c-.38.126-.799.126-1.179 0a1.36 1.36 0 0 1-.456-.268 1.192 1.192 0 0 1-.295-.411c-.14-.339-.14-.71 0-1.05.066-.153.166-.293.295-.413.13-.112.285-.2.456-.258.379-.128.8-.128 1.179 0 .172.061.328.152.458.268.128.117.227.255.293.406.072.169.107.347.105.527zm-.407 0a1.11 1.11 0 0 0-.074-.421.863.863 0 0 0-.535-.514 1.365 1.365 0 0 0-.857 0 .912.912 0 0 0-.328.199.836.836 0 0 0-.209.315 1.23 1.23 0 0 0 0 .842.86.86 0 0 0 .537.512c.276.09.581.09.857 0a.922.922 0 0 0 .328-.197.872.872 0 0 0 .207-.315 1.11 1.11 0 0 0 .074-.421zM12.801 29.991l.041.094c.015-.034.029-.064.045-.094.015-.032.032-.063.05-.093l.991-1.565c.019-.027.037-.044.056-.049a.246.246 0 0 1 .081-.008h.293v2.545h-.347v-1.95a.646.646 0 0 1 0-.088l-.997 1.587c-.013.024-.033.044-.058.058s-.055.021-.085.021h-.056c-.03 0-.06-.007-.085-.021s-.046-.034-.058-.058l-1.026-1.597v2.043h-.335v-2.54h.293a.272.272 0 0 1 .081.008c.024.01.043.028.054.049l1.012 1.567c.02.029.037.059.05.091zM16.529 29.864v.953h-.388v-2.542h.865c.163-.003.326.016.483.056a.97.97 0 0 1 .341.158.655.655 0 0 1 .194.249.766.766 0 0 1 .066.325.727.727 0 0 1-.072.325.698.698 0 0 1-.209.254.981.981 0 0 1-.343.168 1.63 1.63 0 0 1-.467.059l-.469-.007zm0-.272h.469a1.08 1.08 0 0 0 .3-.039.645.645 0 0 0 .217-.11.487.487 0 0 0 .179-.382c.004-.071-.009-.141-.039-.207s-.076-.125-.136-.174a.834.834 0 0 0-.522-.136h-.469v1.048zM21.741 30.821h-.306a.139.139 0 0 1-.085-.024.157.157 0 0 1-.05-.059l-.264-.615h-1.324l-.273.615a.14.14 0 0 1-.049.057.148.148 0 0 1-.087.025h-.306l1.163-2.546h.403l1.179 2.546zm-1.92-.945h1.093l-.461-1.036a1.755 1.755 0 0 1-.087-.239l-.045.133c-.014.04-.029.078-.043.108l-.458 1.034zM23.416 28.288a.174.174 0 0 1 .058.045l1.697 1.919v-1.976h.347v2.545h-.194a.174.174 0 0 1-.141-.062l-1.695-1.917a.646.646 0 0 1 0 .088v1.891h-.347v-2.545h.206a.167.167 0 0 1 .07.012zM28.375 29.809v1.011h-.388v-1.011l-1.072-1.533h.347a.133.133 0 0 1 .083.022.216.216 0 0 1 .052.057l.671.989c.027.042.05.081.07.118s.035.072.049.108l.05-.11a.888.888 0 0 1 .066-.116l.661-.996a.284.284 0 0 1 .05-.054.128.128 0 0 1 .083-.025h.351l-1.074 1.54zM12.609 24.004c.169.019.339.034.512.047 2.616-1.017 4.829-2.681 6.363-4.785s2.319-4.553 2.259-7.043L18.86 9.718c.586 2.651.312 5.39-.792 7.913s-2.994 4.729-5.459 6.372z"/><path  d="m11.579 23.888.078.013c2.634-1.637 4.642-3.923 5.765-6.562s1.308-5.51.533-8.242l-4.106-3.568c1.661 2.933 2.33 6.215 1.928 9.464s-1.857 6.334-4.196 8.893zM25.506 15.165c-.698 2.735-2.392 5.202-4.832 7.035a15.392 15.392 0 0 1-2.296 1.432c1.986-.507 3.812-1.404 5.337-2.621s2.707-2.723 3.456-4.4l-1.665-1.445z"/><path  d="m24.853 14.763-2.371-2.06c-.045 2.349-.814 4.644-2.226 6.648s-3.416 3.642-5.803 4.745h.012c.532 0 1.064-.028 1.592-.083 2.231-.791 4.202-2.05 5.737-3.664s2.586-3.533 3.06-5.586zM11.923 4.026 9.094 1.565c-2.529.849-4.704 2.342-6.24 4.282S.492 10.086.484 12.442c.009 2.603 1.018 5.128 2.865 7.177s4.429 3.504 7.335 4.135c2.594-2.746 4.113-6.14 4.336-9.688s-.862-7.065-3.097-10.04zM31.388 14.384c-.01-3.088-1.427-6.047-3.94-8.23s-5.919-3.414-9.473-3.423a15.073 15.073 0 0 0-4.803.777l17.32 15.048c.593-1.33.897-2.744.896-4.171z"/></symbol><symbol id="icon-client4" viewBox="0 0 32 32"><path  d="M4.949 13.027h-.001c-.903 0-1.635.65-1.635 1.453v.001c0 .802.732 1.453 1.635 1.453h.001c.903 0 1.635-.65 1.635-1.453v-.001c0-.802-.732-1.453-1.635-1.453zM17.015 12.563c-.003-1.114-.502-2.182-1.388-2.97s-2.088-1.232-3.342-1.234c-1.254.002-2.457.446-3.344 1.234s-1.386 1.856-1.389 2.971v6.145s9.462-.937 9.463-6.144v-.001zM0 20.725c.002.775.35 1.518.967 2.067s1.453.857 2.325.86c.872-.002 1.708-.311 2.325-.859s.964-1.291.967-2.066v-4.276S0 17.103 0 20.726zm3.292.766c-.171 0-.337-.045-.479-.129s-.252-.204-.317-.344c-.065-.14-.082-.294-.049-.443s.115-.285.236-.392.274-.18.441-.21c.167-.03.341-.014.498.044s.292.156.387.282a.705.705 0 0 1-.107.97c-.08.071-.175.128-.28.167s-.217.059-.331.059v-.003zM9.945 21.069H9.31v.656h-.331v-1.606h1.046v.268H9.31v.415h.635v.267zm1.591-.111c0 .158-.028.297-.084.416a.636.636 0 0 1-.597.373.647.647 0 0 1-.599-.369.954.954 0 0 1-.087-.41v-.079c0-.158.028-.297.085-.417a.638.638 0 0 1 .599-.374.632.632 0 0 1 .598.374.96.96 0 0 1 .086.416v.072zm-.335-.072c0-.168-.03-.296-.09-.384s-.146-.131-.258-.131c-.111 0-.197.043-.257.13s-.091.212-.092.379v.078c0 .164.03.291.09.382s.147.136.26.136c.111 0 .196-.043.256-.13s.09-.215.09-.382v-.078zm1.408.418c0-.063-.022-.11-.066-.143s-.124-.069-.238-.106a1.716 1.716 0 0 1-.272-.11c-.182-.099-.274-.231-.274-.398 0-.087.024-.164.073-.232s.12-.122.211-.16c.092-.038.195-.057.309-.057s.217.021.307.063a.465.465 0 0 1 .283.433h-.331c0-.074-.023-.131-.069-.171s-.111-.062-.195-.062c-.081 0-.144.017-.189.052s-.067.079-.067.135c0 .052.026.096.078.131s.131.068.233.099c.188.057.325.127.411.211s.129.188.129.313c0 .139-.053.248-.158.328s-.247.118-.425.118c-.124 0-.236-.022-.338-.067s-.179-.108-.233-.186a.48.48 0 0 1-.079-.274h.332c0 .177.106.266.318.266.079 0 .14-.016.184-.047s.066-.077.066-.135zm1.766-.917h-.492v1.338h-.331v-1.338h-.485v-.268h1.308v.268zm1.156.642h-.635v.43h.746v.266h-1.076v-1.606h1.074v.268h-.743v.383h.635v.259zm.899.108h-.264v.588h-.331v-1.606h.597c.19 0 .336.042.439.127s.154.204.154.358c0 .11-.024.201-.072.275s-.119.131-.215.174l.347.656v.015h-.355l-.301-.588zm-.264-.268h.267c.083 0 .147-.021.193-.063s.068-.101.068-.175c0-.076-.022-.135-.065-.179s-.108-.065-.197-.065h-.266v.482zm2.005.29v.566h-.331v-1.606h.626c.121 0 .227.022.318.066s.163.107.212.189a.524.524 0 0 1 .074.277c0 .157-.054.282-.162.373s-.256.136-.447.136h-.29zm0-.268h.296c.088 0 .154-.021.2-.062s.07-.1.07-.176c0-.079-.023-.142-.07-.191s-.11-.074-.192-.075h-.303v.504zm2.094.138h-.635v.43h.746v.266H19.3v-1.606h1.074v.268h-.743v.383h.635v.259zm1.535-.642h-.492v1.338h-.331v-1.338h-.485v-.268H21.8v.268zm1.156.642h-.635v.43h.746v.266h-1.076v-1.606h1.074v.268h-.743v.383h.635v.259zm.899.108h-.264v.588h-.331v-1.606h.597c.19 0 .336.042.439.127s.154.204.154.358c0 .11-.024.201-.072.275s-.119.131-.215.174l.347.656v.015h-.355l-.301-.588zm-.264-.268h.267c.083 0 .147-.021.193-.063s.068-.101.068-.175c0-.076-.022-.135-.065-.179s-.108-.065-.197-.065h-.266v.482zm1.945.435c0-.063-.022-.11-.066-.143s-.124-.069-.238-.106a1.716 1.716 0 0 1-.272-.11c-.182-.099-.274-.231-.274-.398 0-.087.024-.164.073-.232s.119-.122.211-.16c.092-.038.195-.057.309-.057s.217.021.307.063a.465.465 0 0 1 .283.433h-.331c0-.074-.023-.131-.069-.171s-.111-.062-.195-.062c-.081 0-.144.017-.189.052s-.067.079-.067.135c0 .052.026.096.078.131s.131.068.233.099c.188.057.325.127.411.211s.129.188.129.313c0 .139-.053.248-.158.328s-.247.118-.425.118c-.124 0-.236-.022-.337-.067s-.179-.108-.233-.186a.48.48 0 0 1-.079-.274h.332c0 .177.106.266.318.266.079 0 .14-.016.184-.047s.066-.077.066-.135z"/></symbol><symbol id="icon-client5" viewBox="0 0 32 32"><path  d="M2.416 23.738c.124.14.19.316.186.496.006.118-.016.235-.066.344s-.126.205-.222.283c-.24.166-.538.248-.839.229H0v-3.145h1.445c.285-.017.568.056.8.209.093.072.167.162.216.264s.071.213.064.324a.69.69 0 0 1-.168.481.796.796 0 0 1-.44.246.856.856 0 0 1 .498.269zm-1.73-.474h.617c.14.009.28-.028.393-.104.046-.038.082-.086.105-.139s.032-.111.027-.168c.004-.057-.005-.114-.028-.167s-.058-.101-.103-.14a.635.635 0 0 0-.404-.106H.686v.825zm1.071 1.206c.05-.039.089-.089.114-.144s.036-.115.032-.175a.387.387 0 0 0-.15-.322.683.683 0 0 0-.419-.114H.686v.865h.656a.693.693 0 0 0 .414-.109zM5.369 25.09l-.804-1.229h-.302v1.229h-.691v-3.145h1.309c.33-.021.656.075.911.267.183.171.293.396.311.634s-.058.475-.214.667a1.096 1.096 0 0 1-.624.32l.856 1.257h-.752zm-1.105-1.657h.565c.393 0 .589-.159.589-.476.004-.065-.007-.13-.032-.191s-.063-.116-.113-.163a.659.659 0 0 0-.445-.128h-.572l.007.957zM9.148 24.457H7.77l-.243.633h-.725l1.265-3.11h.784l1.26 3.11h-.725l-.238-.633zm-.185-.476-.503-1.327-.503 1.327h1.007zM13.878 25.09h-.686l-1.539-2.139v2.139h-.685v-3.145h.685l1.539 2.151v-2.151h.686v3.145zM17.794 24.338a1.433 1.433 0 0 1-.621.555c-.299.138-.63.206-.965.198h-1.222v-3.145h1.222c.334-.008.665.058.965.194.263.121.479.312.621.548.141.256.215.538.215.825s-.074.569-.215.825zm-.785-.076c.196-.209.304-.475.304-.751s-.108-.542-.304-.75a1.264 1.264 0 0 0-.859-.267h-.476v2.036h.476c.314.018.622-.078.859-.267zM9.578 4.453s8.858 3.062 8.67 7.493v7.494s-8.851-3.063-8.666-7.494l-.003-7.493zM26.139 17.685a12.85 12.85 0 0 1 5.628-1.899V13.44c-2.327.821-4.302 2.311-5.628 4.245z"/><path  d="M25.134 18.392c1.369-2.524 3.743-4.472 6.633-5.443v-6.76S19.152 10.551 19.419 16.86v10.67s.562-.195 1.446-.561c0-.341 0-.685.04-1.031.261-2.929 1.782-5.644 4.228-7.546z"/><path  d="M23.934 22.356c.066-.74.214-1.472.441-2.185-1.523 1.643-2.446 3.682-2.638 5.83a9.502 9.502 0 0 0-.034.615c.716-.315 1.55-.708 2.426-1.171a10.093 10.093 0 0 1-.196-3.09zM24.436 22.394a9.664 9.664 0 0 0 .156 2.798c3.446-1.888 7.319-4.806 7.17-8.332v-.307c-2.462.252-4.766 1.238-6.557 2.805a9.782 9.782 0 0 0-.768 3.036z"/></symbol><symbol id="icon-client6" viewBox="0 0 32 32"><path  d="M16.145 15.628a1.004 1.004 0 0 1-.206-.677v-.982c0-.301.068-.53.205-.686s.371-.234.703-.234c.312 0 .534.067.665.2.143.17.213.378.197.587v.231h-.559v-.234a1.177 1.177 0 0 0-.016-.229.22.22 0 0 0-.08-.136.322.322 0 0 0-.202-.053.342.342 0 0 0-.213.056.264.264 0 0 0-.093.15c-.016.08-.023.161-.022.243v1.191a.608.608 0 0 0 .072.335c.028.035.066.063.111.081s.095.024.144.019a.302.302 0 0 0 .198-.054.235.235 0 0 0 .083-.145c.013-.079.019-.159.017-.239v-.242h.559v.221a.897.897 0 0 1-.193.617c-.128.146-.347.219-.668.219s-.564-.078-.702-.24zM18.47 15.638c-.141-.153-.212-.375-.212-.67v-1.032c0-.292.071-.512.212-.662s.377-.224.708-.224c.328 0 .563.075.704.224s.213.37.213.662v1.032c0 .292-.072.515-.215.669s-.377.231-.702.231c-.325 0-.566-.078-.708-.23zm.968-.247a.567.567 0 0 0 .067-.306v-1.264a.566.566 0 0 0-.066-.3c-.028-.036-.068-.065-.114-.082s-.097-.024-.147-.018c-.05-.006-.101 0-.148.018s-.086.046-.115.082a.545.545 0 0 0-.067.3v1.27a.57.57 0 0 0 .067.306.363.363 0 0 0 .262.103c.049 0 .098-.009.144-.027s.085-.043.118-.076v-.006zM20.767 13.08h.601l.452 1.905.463-1.905h.585l.059 2.749h-.433l-.046-1.911-.446 1.911h-.347l-.463-1.918-.043 1.918h-.437l.054-2.749zM23.602 13.08h.937c.54 0 .81.26.81.781 0 .499-.284.747-.852.747h-.319v1.222H23.6l.003-2.749zm.8 1.175c.057.006.115.002.17-.013s.105-.04.148-.074a.443.443 0 0 0 .083-.31.846.846 0 0 0-.028-.25c-.008-.027-.023-.053-.043-.075s-.045-.041-.073-.055a.608.608 0 0 0-.258-.044h-.224v.822h.224zM26.182 13.08h.621l.637 2.749h-.539l-.126-.634h-.554l-.13.634h-.547l.637-2.749zm.531 1.797-.216-1.154-.216 1.154h.433zM27.955 13.08h.405l.775 1.568V13.08h.48v2.749h-.385l-.779-1.637v1.637h-.496l.001-2.749zM30.739 14.782l-.644-1.697h.542l.393 1.09.369-1.09h.531l-.636 1.697v1.048h-.555v-1.048zM17.038 17.032v.144h-.472v1.117h-.198v-1.117h-.474v-.144h1.144zM18.517 18.293h-.153a.066.066 0 0 1-.043-.012.059.059 0 0 1-.025-.029l-.136-.3h-.655l-.136.3a.08.08 0 0 1-.021.034.07.07 0 0 1-.043.012h-.153l.578-1.261h.201l.585 1.256zm-.958-.468h.546l-.231-.513a.993.993 0 0 1-.043-.119l-.022.067-.021.053-.229.512zM19.514 18.169a.99.99 0 0 0 .109 0 .75.75 0 0 0 .176-.038l.077-.031v-.284h-.231c-.006 0-.011 0-.017-.002s-.01-.004-.014-.008c-.004-.003-.007-.006-.009-.01s-.003-.008-.003-.013v-.097h.449v.483a.795.795 0 0 1-.244.103 1 1 0 0 1-.145.026 1.893 1.893 0 0 1-.169.008.862.862 0 0 1-.291-.047.703.703 0 0 1-.231-.132.612.612 0 0 1-.149-.2.627.627 0 0 1-.053-.262.576.576 0 0 1 .201-.464.7.7 0 0 1 .231-.131.98.98 0 0 1 .31-.047c.054 0 .108.004.161.011a.813.813 0 0 1 .254.082c.035.02.069.042.101.066l-.056.078c-.004.007-.011.013-.019.017s-.017.007-.026.007a.075.075 0 0 1-.036-.01.822.822 0 0 1-.057-.03.582.582 0 0 0-.183-.062.901.901 0 0 0-.147-.011.672.672 0 0 0-.223.035.438.438 0 0 0-.278.257.585.585 0 0 0 0 .42.502.502 0 0 0 .285.259c.074.022.151.03.229.025zM21.357 18.149h.631v.144h-.825v-1.261h.198l-.005 1.117zM22.645 18.293h-.198v-1.261h.198v1.261zM23.381 17.038a.1.1 0 0 1 .03.023l.845.951a.338.338 0 0 1 0-.045V17.027h.172v1.266h-.099a.09.09 0 0 1-.043-.007.092.092 0 0 1-.031-.024l-.844-.95v.981h-.165v-1.261h.103c.011 0 .022.002.032.006zM25.885 17.032v.139h-.701v.416h.568v.134h-.568v.43h.701v.139h-.904v-1.258h.904zM5.161 9.244l8.781 2.153v7.543l-8.781-2.152V9.244zm-.563-.643v8.554l9.907 2.429v-8.553l-9.907-2.43z"/><path  d="M9.908 23.555 0 21.124v-8.553l9.908 2.43v8.554z"/><path  d="m4.762 9.148 8.667 2.126-3.686 3.183-8.668-2.127 3.687-3.182zm-.164-.547L0 12.571l9.908 2.43 4.597-3.97-9.907-2.43zM10.465 23.074l4.04-3.488-4.04-.991v4.48z"/></symbol><symbol id="icon-clock" viewBox="0 0 32 32"><path fill="#212121" style="fill:var(--color1, #212121)" d="M31.296 15.301C31.295 6.849 24.441-.002 15.988 0S.685 6.855.687 15.308c.002 6.788 4.422 12.543 10.541 14.545l.108.031a.667.667 0 0 0 .529-.065.636.636 0 0 0 .283-.357l3.865-12.25a1.913 1.913 0 1 0-.852-3.63l.011-.005-5.106-5.107a.638.638 0 0 0-.902.902l5.103 5.109a1.847 1.847 0 0 0-.191.826c0 .602.283 1.137.723 1.48l.004.003-3.682 11.673C3.843 25.782.117 17.709 2.797 10.431S13.551-.573 20.829 2.108c7.278 2.681 11.004 10.754 8.323 18.032-1.345 3.581-4.003 6.406-7.374 7.938l-.088.036-.398-1.874a.639.639 0 0 0-1.05-.343l.001-.001-3.837 3.426a.637.637 0 0 0 .227 1.083l.005.001 4.899 1.563a.637.637 0 0 0 .818-.744l.001.004-.391-1.839c5.528-2.374 9.329-7.772 9.329-14.057v-.034.002zm-15.304-.637a.638.638 0 0 1 0 1.276.638.638 0 0 1 0-1.276zm2.1 14.864 2.184-1.948.603 2.84-2.787-.892z"/><path fill="#2196f3" style="fill:var(--color2, #2196f3)" d="M15.354 3.185V4.46a.638.638 0 0 0 1.276 0V3.185a.638.638 0 1 0-1.276 0zM3.876 14.664a.638.638 0 0 0 0 1.276h1.275a.638.638 0 0 0 0-1.276H3.876zm24.232 1.275a.638.638 0 0 0 0-1.276h-1.275a.638.638 0 0 0 0 1.276h1.275z"/></symbol><symbol id="icon-diagram" viewBox="0 0 32 32"><path fill="#2196f3" style="fill:var(--color2, #2196f3)" d="M14.926 14.965h1.066v4.798h-1.066v-4.798zm4.264 2.132h1.066v2.665H19.19v-2.665zm-8.529 1.599h1.066v1.066h-1.066v-1.066zm-3.198-.533h1.066v1.599H7.463v-1.599z"/><path fill="#212121" style="fill:var(--color1, #212121)" d="M1.599 28.291h25.586a1.6 1.6 0 0 0 1.599-1.599V24.56a1.6 1.6 0 0 0-1.599-1.599h-.533V9.667l3.028-2.868a1.608 1.608 0 1 0-.742-.752l-.004-.01-2.281 2.162v-1.23a1.6 1.6 0 0 0-1.599-1.599H3.731a1.6 1.6 0 0 0-1.599 1.599v15.992h-.533A1.6 1.6 0 0 0 0 24.56v2.132a1.6 1.6 0 0 0 1.599 1.599zM30.384 4.837a.533.533 0 0 1 0 1.066.533.533 0 0 1 0-1.066zM3.198 6.969c0-.294.239-.533.533-.533h21.323c.294 0 .533.239.533.533v2.239l-1.066 1.013V8.036a.534.534 0 0 0-.534-.534H4.798a.534.534 0 0 0-.534.533v13.327c0 .294.239.533.534.533h19.189a.534.534 0 0 0 .534-.533v-9.675l1.066-1.01V22.96H3.198V6.969zm4.798 6.93h-.005a1.6 1.6 0 1 0 1.112 2.748l1.853.93a.535.535 0 0 0 .636-.122l3.939-4.432 3.872 2.902a.534.534 0 0 0 .686-.039l3.365-3.188v8.131H5.331V8.568h18.123v2.661l-3.771 3.572-3.904-2.927a.534.534 0 0 0-.718.071v.001l-3.993 4.493-1.493-.746c.011-.064.017-.128.02-.193a1.6 1.6 0 0 0-1.599-1.599zm.533 1.599a.533.533 0 0 1-1.066 0 .533.533 0 0 1 1.066 0zm3.198 8.528h5.33v.533a.533.533 0 0 1-.533.533h-4.265a.533.533 0 0 1-.533-.533v-.533zm-10.66.534c0-.294.238-.533.533-.533h9.062v.533a1.6 1.6 0 0 0 1.599 1.599h4.265a1.6 1.6 0 0 0 1.599-1.599v-.533h9.062c.294 0 .533.239.533.533v2.132a.533.533 0 0 1-.533.533H1.601a.533.533 0 0 1-.533-.533V24.56z"/></symbol><symbol id="icon-email" viewBox="0 0 32 32"><path d="M28 4H4a2.996 2.996 0 0 0-2.985 3L1 25c0 1.65 1.35 3 3 3h24c1.65 0 3-1.35 3-3V7c0-1.65-1.35-3-3-3zm-.6 6.375-10.605 6.63c-.48.3-1.11.3-1.59 0L4.6 10.375c-.375-.24-.6-.645-.6-1.08C4 8.29 5.095 7.69 5.95 8.215L16 14.5l10.05-6.285c.855-.525 1.95.075 1.95 1.08 0 .435-.225.84-.6 1.08z"/></symbol><symbol id="icon-envelope" viewBox="0 0 32 32"><path  d="M29 4H3C1.346 4 0 5.346 0 7v18c0 1.654 1.346 3 3 3h26c1.654 0 3-1.346 3-3V7c0-1.654-1.346-3-3-3zm0 2c.136 0 .265.028.383.077L16 17.676 2.617 6.077A.996.996 0 0 1 3 6h26zm0 20H3a1 1 0 0 1-1-1V8.19l13.345 11.565a.998.998 0 0 0 1.31 0L30 8.19V25a1 1 0 0 1-1 1z"/></symbol><symbol id="icon-facebook" viewBox="0 0 32 32"><path  d="M21.328 5.312h2.923V.224A36.483 36.483 0 0 0 20.143 0h-.156.008c-4.213 0-7.099 2.65-7.099 7.52V12H8.25v5.688h4.646V32h5.699V17.69h4.459l.707-5.688h-5.168V8.08c0-1.643.443-2.768 2.734-2.768z"/></symbol><symbol id="icon-icon_send" viewBox="0 0 32 32"><path  d="M32 0 0 18l10.227 3.788L26 7 14.002 23.186l.01.004-.012-.004V32l5.735-6.691L27 28l5-28z"/></symbol><symbol id="icon-instagram" viewBox="0 0 32 32"><path  d="M31.968 9.408c-.074-1.701-.349-2.869-.742-3.882a7.839 7.839 0 0 0-1.85-2.837l-.001-.001A7.906 7.906 0 0 0 26.597.861l-.054-.018C25.524.449 24.362.176 22.661.101 20.949.019 20.405 0 16.059 0c-4.344 0-4.888.019-6.595.094-1.699.074-2.869.349-3.88.742a7.847 7.847 0 0 0-2.839 1.85l-.001.001A7.9 7.9 0 0 0 .919 5.465l-.018.054C.506 6.538.232 7.7.157 9.401c-.082 1.712-.101 2.256-.101 6.602 0 4.344.019 4.888.094 6.595.075 1.701.35 2.869.744 3.882a7.915 7.915 0 0 0 1.849 2.837l.001.001c.8.813 1.77 1.443 2.832 1.843 1.019.395 2.182.67 3.882.744 1.707.075 2.251.094 6.595.094 4.346 0 4.89-.019 6.595-.094 1.701-.074 2.869-.349 3.882-.742a8.237 8.237 0 0 0 4.664-4.628l.019-.055c.394-1.019.669-2.182.744-3.882.075-1.707.093-2.251.093-6.595s-.006-4.888-.08-6.595zm-2.88 13.066c-.07 1.563-.333 2.406-.55 2.97a5.341 5.341 0 0 1-3.004 3.024l-.036.012c-.56.219-1.411.482-2.968.55-1.688.075-2.194.094-6.464.094-4.269 0-4.782-.019-6.464-.094-1.563-.069-2.406-.331-2.97-.55a4.953 4.953 0 0 1-1.836-1.192l-.001-.001a4.978 4.978 0 0 1-1.184-1.803L3.6 25.45c-.218-.563-.48-1.413-.549-2.97-.075-1.688-.094-2.195-.094-6.464 0-4.27.019-4.784.094-6.464.069-1.563.331-2.406.549-2.97a4.897 4.897 0 0 1 1.198-1.837l.002-.002a4.972 4.972 0 0 1 1.806-1.182l.034-.011c.56-.219 1.411-.48 2.968-.55 1.688-.074 2.195-.093 6.464-.093 4.275 0 4.782.019 6.464.093 1.563.069 2.406.331 2.97.55a4.91 4.91 0 0 1 1.837 1.194c.531.52.938 1.144 1.195 1.84.218.56.48 1.411.549 2.968.075 1.688.094 2.194.094 6.464 0 4.269-.019 4.768-.094 6.458z"/><path  d="M16.059 7.782a8.223 8.223 0 0 0-8.219 8.221 8.223 8.223 0 0 0 16.442.008v-.009a8.223 8.223 0 0 0-8.221-8.221zm0 13.552a5.333 5.333 0 0 1 .001-10.666h.001a5.334 5.334 0 1 1 0 10.668zM26.525 7.458a1.92 1.92 0 0 1-3.84 0 1.92 1.92 0 0 1 3.84 0z"/></symbol><symbol id="icon-linkedin" viewBox="0 0 32 32"><path  d="M31.992 32H32V20.262c0-5.741-1.237-10.163-7.947-10.163-3.227 0-5.392 1.77-6.277 3.45h-.093v-2.914h-6.365v21.363h6.627V21.42c0-2.786.528-5.48 3.978-5.48 3.398 0 3.448 3.179 3.448 5.658V32h6.621zM.528 10.635h6.635V32H.528V10.635zM3.843 0A3.843 3.843 0 0 0 0 3.843c0 2.12 1.722 3.878 3.843 3.878 2.12 0 3.842-1.757 3.842-3.878S5.965.002 3.844 0z"/></symbol><symbol id="icon-person" viewBox="0 0 32 32"><path d="M16 16c2.947 0 5.333-2.387 5.333-5.333S18.946 5.334 16 5.334c-2.947 0-5.333 2.387-5.333 5.333S13.054 16 16 16zm0 2.667c-3.56 0-10.667 1.787-10.667 5.333v1.333c0 .733.6 1.333 1.333 1.333h18.667c.733 0 1.333-.6 1.333-1.333V24c0-3.547-7.107-5.333-10.667-5.333z"/></symbol><symbol id="icon-phone" viewBox="0 0 32 32"><path d="m27.419 20.852-4.201-.48a3.293 3.293 0 0 0-2.713.943l-3.044 3.044A24.888 24.888 0 0 1 6.56 13.458l3.06-3.06a3.293 3.293 0 0 0 .943-2.713l-.48-4.168A3.31 3.31 0 0 0 6.791.589H3.929C2.06.589.505 2.144.621 4.013c.877 14.126 12.174 25.407 26.284 26.284 1.869.116 3.424-1.439 3.424-3.308v-2.861c.016-1.671-1.241-3.077-2.911-3.275z"/></symbol><symbol id="icon-smartphone" viewBox="0 0 32 32"><path  d="M23 0H9C7.346 0 6 1.346 6 3v26c0 1.654 1.346 3 3 3h14c1.654 0 3-1.346 3-3V3c0-1.654-1.346-3-3-3zM9 2h14a1 1 0 0 1 1 1v21H8V3a1 1 0 0 1 1-1zm14 28H9a1 1 0 0 1-1-1v-3h16v3a1 1 0 0 1-1 1z"/><path  d="M10.707 27.478c.391.365.391.956 0 1.321s-1.024.365-1.414 0c-.391-.365-.391-.956 0-1.321s1.024-.365 1.414 0z"/></symbol><symbol id="icon-twitter" viewBox="0 0 32 32"><path  d="M32 6.078c-1.1.493-2.376.857-3.713 1.028l-.068.007a6.556 6.556 0 0 0 2.873-3.579l.013-.046a12.88 12.88 0 0 1-4.076 1.573l-.084.014A6.558 6.558 0 0 0 15.6 9.557v.004c0 .52.043 1.021.152 1.496-5.454-.266-10.28-2.88-13.522-6.861a6.524 6.524 0 0 0-.902 3.313v.001a6.57 6.57 0 0 0 2.914 5.451 6.453 6.453 0 0 1-2.994-.823l.033.017v.072a6.592 6.592 0 0 0 5.213 6.44l.043.008a6.403 6.403 0 0 1-1.662.215h-.061.003c-.419 0-.843-.024-1.242-.112.85 2.598 3.261 4.509 6.13 4.57a13.093 13.093 0 0 1-8.122 2.8H1.57h.001-.062c-.531 0-1.055-.034-1.569-.099l.061.006c2.826 1.846 6.287 2.944 10.004 2.944h.063-.003c12.072 0 18.672-10 18.672-18.669 0-.288-.01-.57-.024-.848a13.203 13.203 0 0 0 3.258-3.355l.03-.047z"/></symbol></defs></svg>